<svg viewBox="0 0 52 52" fill="none" xmlns="http://www.w3.org/2000/svg" preserveAspectRatio="xMidYMid meet">
<path d="M26.5002 22.704C25.9722 22.704 25.5242 22.52 25.1562 22.152C24.7882 21.784 24.6042 21.336 24.6042 20.808C24.6042 20.28 24.7882 19.832 25.1562 19.464C25.5242 19.08 25.9722 18.888 26.5002 18.888C27.0282 18.888 27.4762 19.08 27.8442 19.464C28.2282 19.832 28.4202 20.28 28.4202 20.808C28.4202 21.336 28.2282 21.784 27.8442 22.152C27.4762 22.52 27.0282 22.704 26.5002 22.704ZM24.8682 36.144C24.1002 36.144 23.4762 35.904 22.9962 35.424C22.5322 34.944 22.3002 34.224 22.3002 33.264C22.3002 32.864 22.3642 32.344 22.4922 31.704L24.1242 24H27.5802L25.8522 32.16C25.7882 32.4 25.7562 32.656 25.7562 32.928C25.7562 33.248 25.8282 33.48 25.9722 33.624C26.1322 33.752 26.3882 33.816 26.7402 33.816C27.0282 33.816 27.2842 33.768 27.5082 33.672C27.4442 34.472 27.1562 35.088 26.6442 35.52C26.1482 35.936 25.5562 36.144 24.8682 36.144Z" fill="url(#paint0_linear_5_197)"./>
<rect x="0.5" y="0.5" width="51" height="51" rx="24.5" stroke="url(#paint1_linear_5_197)"./>
<defs>
<linearGradient id="paint0_linear_5_197" x1="25" y1="12" x2="25" y2="42" gradientUnits="userSpaceOnUse">
<stop stop-color="#FEFEFF"./>
<stop offset="1" stop-color="#9EA5C0"./>
</linearGradient>
<linearGradient id="paint1_linear_5_197" x1="26" y1="0" x2="26" y2="52" gradientUnits="userSpaceOnUse">
<stop stop-color="#FEFEFF"./>
<stop offset="1" stop-color="#9EA5C0"./>
</linearGradient>
</defs>
</svg>
