<svg  preserveAspectRatio="xMidYMid meet" viewBox="0 0 52 52" fill="none" xmlns="http://www.w3.org/2000/svg">
<path d="M18.775 30C18.435 30 18.1375 29.8875 17.8825 29.6625C17.6275 29.4375 17.5 29.175 17.5 28.875V19.125C17.5 18.825 17.6275 18.5625 17.8825 18.3375C18.1375 18.1125 18.435 18 18.775 18H33.225C33.565 18 33.8625 18.1125 34.1175 18.3375C34.3725 18.5625 34.5 18.825 34.5 19.125V28.875C34.5 29.175 34.3725 29.4375 34.1175 29.6625C33.8625 29.8875 33.565 30 33.225 30H18.775ZM18.775 28.875H28.5713V25.8188H18.775V28.875ZM29.8463 28.875H33.225V21.6375H29.8463V28.875ZM18.775 24.6938H28.5713V21.6375H18.775V24.6938Z" fill="url(#paint0_linear_5_187)"./>
<path d="M13.5387 37.5792C13.2294 37.5792 12.9783 37.4781 12.7853 37.2758C12.5923 37.0736 12.4958 36.823 12.4958 36.5241C12.4958 36.2251 12.5923 35.9762 12.7853 35.7774C12.9783 35.5786 13.2294 35.4792 13.5387 35.4792H38.4613C38.7706 35.4792 39.0217 35.5792 39.2147 35.7793C39.4077 35.9793 39.5041 36.2273 39.5041 36.523C39.5041 36.8188 39.4077 37.0688 39.2147 37.2729C39.0217 37.4771 38.7706 37.5792 38.4613 37.5792H13.5387ZM16.3458 33.7292C15.5865 33.7292 14.9397 33.4621 14.4055 32.9278C13.8713 32.3936 13.6041 31.7468 13.6041 30.9875V17.5125C13.6041 16.7452 13.8713 16.0915 14.4055 15.5516C14.9397 15.0116 15.5865 14.7417 16.3458 14.7417H35.6541C36.4215 14.7417 37.0751 15.0116 37.615 15.5516C38.155 16.0915 38.425 16.7452 38.425 17.5125V30.9875C38.425 31.7468 38.155 32.3936 37.615 32.9278C37.0751 33.4621 36.4215 33.7292 35.6541 33.7292H16.3458ZM16.3458 30.9875H35.6541V17.5125H16.3458V30.9875Z" fill="url(#paint1_linear_5_187)"./>
<rect x="0.5" y="0.5" width="51" height="51" rx="24.5" stroke="url(#paint2_linear_5_187)"./>
<defs>
<linearGradient id="paint0_linear_5_187" x1="26" y1="18" x2="26" y2="30" gradientUnits="userSpaceOnUse">
<stop stop-color="#FEFEFF"./>
<stop offset="1" stop-color="#9EA5C0"./>
</linearGradient>
<linearGradient id="paint1_linear_5_187" x1="26" y1="14.7417" x2="26" y2="37.5792" gradientUnits="userSpaceOnUse">
<stop stop-color="#FEFEFF"./>
<stop offset="1" stop-color="#9EA5C0"./>
</linearGradient>
<linearGradient id="paint2_linear_5_187" x1="26" y1="0" x2="26" y2="52" gradientUnits="userSpaceOnUse">
<stop stop-color="#FEFEFF"./>
<stop offset="1" stop-color="#9EA5C0"./>
</linearGradient>
</defs>
</svg>
