<svg  preserveAspectRatio="xMidYMid meet" viewBox="0 0 52 52" fill="none" xmlns="http://www.w3.org/2000/svg">
<path d="M22.4362 31.048H23.4362V30.9997L23.4315 30.9516L22.4362 31.048ZM23.1137 28.338L23.9762 28.8441L24.8238 27.3995L23.15 27.3386L23.1137 28.338ZM18.5971 18.5143L19.3319 19.1926L19.7036 18.7899L19.5641 18.2598L18.5971 18.5143ZM18.71 15.0139L18.6333 14.0169L18.0688 14.0603L17.8155 14.5667L18.71 15.0139ZM22.4362 16.256L21.9983 17.1551L22.2911 17.2976L22.6117 17.2405L22.4362 16.256ZM28.7595 16.256L28.6057 17.2441L28.9613 17.2995L29.2707 17.1155L28.7595 16.256ZM32.2598 15.0139L33.1695 14.5986L32.8866 13.979L32.2064 14.0154L32.2598 15.0139ZM32.4857 18.5143L31.535 18.2041L31.3642 18.7276L31.7153 19.1519L32.4857 18.5143ZM27.969 28.338L27.9283 27.3388L26.2821 27.406L27.1015 28.8353L27.969 28.338ZM16.0947 26.7779C15.5449 26.7256 15.0568 27.1289 15.0045 27.6787C14.9522 28.2285 15.3555 28.7166 15.9053 28.7689L16.0947 26.7779ZM23.4362 35V31.048H21.4362V35H23.4362ZM18.5971 18.5143C19.5641 18.2598 19.5642 18.26 19.5642 18.2602C19.5643 18.2603 19.5643 18.2605 19.5643 18.2606C19.5644 18.2608 19.5644 18.261 19.5645 18.2612C19.5646 18.2615 19.5646 18.2617 19.5646 18.2617C19.5647 18.2618 19.5646 18.2615 19.5643 18.2606C19.5639 18.2589 19.563 18.2552 19.5616 18.2497C19.5589 18.2387 19.5544 18.2203 19.5486 18.1951C19.5371 18.1449 19.5203 18.0682 19.5018 17.9708C19.4644 17.7748 19.421 17.5011 19.3963 17.1925C19.3437 16.5349 19.3914 15.8872 19.6044 15.4612L17.8155 14.5667C17.3511 15.4956 17.3423 16.5982 17.4026 17.352C17.4344 17.7492 17.4897 18.0965 17.5371 18.345C17.5609 18.4699 17.583 18.5715 17.5996 18.6438C17.6079 18.68 17.6149 18.709 17.6202 18.7301C17.6228 18.7406 17.6249 18.7492 17.6266 18.7556C17.6274 18.7589 17.6281 18.7616 17.6287 18.7638C17.629 18.7649 17.6292 18.7659 17.6294 18.7667C17.6295 18.7671 17.6296 18.7675 17.6297 18.7679C17.6298 18.768 17.6298 18.7683 17.6299 18.7684C17.6299 18.7686 17.63 18.7688 18.5971 18.5143ZM18.7867 16.011C19.9032 15.9251 20.2328 16.2952 21.9983 17.1551L22.874 15.357C21.487 14.6814 20.4525 13.8769 18.6333 14.0169L18.7867 16.011ZM22.6117 17.2405C24.9493 16.8237 26.2198 16.8728 28.6057 17.2441L28.9132 15.2679C26.3604 14.8706 24.8618 14.8078 22.2607 15.2715L22.6117 17.2405ZM29.2707 17.1155C30.5938 16.3285 31.1983 16.0722 32.3133 16.0125L32.2064 14.0154C30.6205 14.1002 29.686 14.5413 28.2482 15.3966L29.2707 17.1155ZM31.3502 15.4293C31.6228 16.0265 31.7381 16.4465 31.7627 16.8259C31.787 17.2021 31.7273 17.6148 31.535 18.2041L33.4363 18.8245C33.6765 18.0884 33.8047 17.4098 33.7585 16.6966C33.7124 15.9866 33.4985 15.3191 33.1695 14.5986L31.3502 15.4293ZM27.1015 28.8353C27.6957 29.8718 27.8107 30.6766 27.8055 31.5644C27.8027 32.0506 27.7658 32.5106 27.7389 33.1155C27.7131 33.6966 27.7015 34.3459 27.7629 35.083L29.756 34.917C29.7045 34.2991 29.713 33.744 29.7369 33.2042C29.7599 32.6882 29.8024 32.1107 29.8055 31.576C29.8122 30.4219 29.6449 29.2506 28.8366 27.8406L27.1015 28.8353ZM17.8623 17.836C16.2275 19.6071 15.7703 22.401 16.5622 24.7606C17.3827 27.2052 19.5448 29.2089 23.0773 29.3373L23.15 27.3386C20.4722 27.2413 19.021 25.801 18.4583 24.1242C17.867 22.3623 18.2567 20.3574 19.3319 19.1926L17.8623 17.836ZM31.7153 19.1519C32.8072 20.4713 33.0512 22.4785 32.3851 24.2104C31.7375 25.894 30.2574 27.2437 27.9283 27.3388L28.0098 29.3371C31.2136 29.2064 33.3467 27.2815 34.2518 24.9284C35.1382 22.6236 34.8741 19.8319 33.2561 17.8768L31.7153 19.1519ZM22.1391 30.0931C20.9434 30.4651 20.3934 30.4054 20.1457 30.3139C19.9426 30.2389 19.7878 30.0886 19.561 29.6631C19.3756 29.3153 19.0601 28.5631 18.5918 28.0084C18.0421 27.3573 17.2597 26.8887 16.0947 26.7779L15.9053 28.7689C16.5615 28.8313 16.859 29.0563 17.0636 29.2986C17.3497 29.6374 17.4628 29.9786 17.7961 30.6038C18.0878 31.1512 18.5416 31.8534 19.4525 32.19C20.3189 32.5101 21.3884 32.4212 22.7333 32.0028L22.1391 30.0931ZM22.2512 27.8319C21.86 28.4985 21.6136 29.0567 21.4932 29.6117C21.3709 30.1753 21.3945 30.6656 21.4408 31.1443L23.4315 30.9516C23.3919 30.5419 23.3912 30.2959 23.4477 30.0359C23.506 29.7673 23.6413 29.4147 23.9762 28.8441L22.2512 27.8319Z" fill="url(#paint0_linear_5_181)"/>
<rect x="0.5" y="0.5" width="51" height="51" rx="24.5" stroke="url(#paint1_linear_5_181)"/>
<defs>
<linearGradient id="paint0_linear_5_181" x1="24.8767" y1="15" x2="24.8767" y2="35" gradientUnits="userSpaceOnUse">
<stop stop-color="#FEFEFF"/>
<stop offset="1" stop-color="#9EA5C0"/>
</linearGradient>
<linearGradient id="paint1_linear_5_181" x1="26" y1="0" x2="26" y2="52" gradientUnits="userSpaceOnUse">
<stop stop-color="#FEFEFF"/>
<stop offset="1" stop-color="#9EA5C0"/>
</linearGradient>
</defs>
</svg>
