<svg  preserveAspectRatio="xMidYMid meet" viewBox="0 0 53 52" fill="none" xmlns="http://www.w3.org/2000/svg">
<path d="M18.0125 36.0042C16.6319 36.0042 15.4672 35.522 14.5182 34.5576C13.5692 33.5932 13.0812 32.4217 13.0542 31.043C13.0542 30.8504 13.0639 30.6521 13.0833 30.4479C13.1028 30.2437 13.1417 30.0444 13.2 29.85L15.65 20.0208C15.9611 18.8347 16.5953 17.8673 17.5527 17.1187C18.51 16.3701 19.5966 15.9958 20.8125 15.9958H32.1875C33.4034 15.9958 34.49 16.3701 35.4473 17.1187C36.4047 17.8673 37.0486 18.8347 37.3792 20.0208L39.8292 29.8208C39.8681 30.0347 39.9021 30.2439 39.9313 30.4485C39.9604 30.653 39.975 30.8614 39.975 31.0736C39.975 32.4536 39.489 33.6204 38.5171 34.5739C37.5452 35.5274 36.3685 36.0042 34.987 36.0042C34.0346 36.0042 33.1549 35.7562 32.3479 35.2604C31.541 34.7646 30.9333 34.0889 30.525 33.2333L29.7083 31.5417C29.6694 31.4639 29.6135 31.4104 29.5404 31.3812C29.4673 31.3521 29.3775 31.3375 29.2708 31.3375H23.7292C23.6225 31.3375 23.5327 31.3521 23.4596 31.3812C23.3865 31.4104 23.3306 31.4639 23.2917 31.5417L22.475 33.2333C22.0667 34.0889 21.4583 34.7646 20.6498 35.2604C19.8413 35.7562 18.9622 36.0042 18.0125 36.0042ZM18.0902 33.2625C18.5062 33.2625 18.8809 33.1509 19.2141 32.9279C19.5473 32.7048 19.8176 32.408 20.025 32.0375L20.8417 30.375C21.0937 29.8158 21.4803 29.3795 22.0012 29.066C22.5222 28.7526 23.0982 28.5958 23.7292 28.5958H29.2708C29.901 28.5958 30.4713 28.758 30.982 29.0824C31.4925 29.4067 31.9041 29.8376 32.2167 30.375L33.0333 32.0375C33.2213 32.408 33.4819 32.7048 33.8151 32.9279C34.1483 33.1509 34.5221 33.2625 34.9366 33.2625C35.5504 33.2625 36.077 33.0535 36.5162 32.6354C36.9554 32.2173 37.1847 31.7069 37.2042 31.1042C37.2042 30.9292 37.175 30.725 37.1167 30.4917L34.6667 20.7208C34.5306 20.1569 34.234 19.6854 33.7771 19.3062C33.3201 18.9271 32.7903 18.7375 32.1875 18.7375H20.8125C20.2243 18.7375 19.6973 18.9216 19.2314 19.2897C18.7655 19.6579 18.4662 20.1349 18.3333 20.7208L15.8833 30.4917C15.9028 30.4722 15.8736 30.6667 15.7958 31.075C15.7958 31.6996 16.023 32.2203 16.4773 32.6372C16.9317 33.0541 17.4693 33.2625 18.0902 33.2625ZM28.2551 24.5417C28.5045 24.5417 28.7118 24.4573 28.8771 24.2886C29.0424 24.1199 29.125 23.9109 29.125 23.6615C29.125 23.4122 29.0407 23.2048 28.872 23.0396C28.7033 22.8743 28.4943 22.7917 28.2449 22.7917C27.9955 22.7917 27.7882 22.876 27.6229 23.0447C27.4576 23.2134 27.375 23.4224 27.375 23.6718C27.375 23.9211 27.4593 24.1285 27.628 24.2937C27.7967 24.459 28.0058 24.5417 28.2551 24.5417ZM30.5884 22.2083C30.8378 22.2083 31.0451 22.124 31.2104 21.9553C31.3757 21.7866 31.4583 21.5776 31.4583 21.3282C31.4583 21.0788 31.374 20.8715 31.2053 20.7062C31.0366 20.541 30.8276 20.4583 30.5782 20.4583C30.3289 20.4583 30.1215 20.5427 29.9563 20.7113C29.791 20.88 29.7083 21.0891 29.7083 21.3384C29.7083 21.5878 29.7927 21.7951 29.9614 21.9604C30.1301 22.1257 30.3391 22.2083 30.5884 22.2083ZM30.5884 26.875C30.8378 26.875 31.0451 26.7906 31.2104 26.622C31.3757 26.4533 31.4583 26.2442 31.4583 25.9949C31.4583 25.7455 31.374 25.5382 31.2053 25.3729C31.0366 25.2076 30.8276 25.125 30.5782 25.125C30.3289 25.125 30.1215 25.2093 29.9563 25.378C29.791 25.5467 29.7083 25.7557 29.7083 26.0051C29.7083 26.2545 29.7927 26.4618 29.9614 26.6271C30.1301 26.7923 30.3391 26.875 30.5884 26.875ZM32.9218 24.5417C33.1711 24.5417 33.3785 24.4573 33.5438 24.2886C33.709 24.1199 33.7917 23.9109 33.7917 23.6615C33.7917 23.4122 33.7073 23.2048 33.5386 23.0396C33.3699 22.8743 33.1609 22.7917 32.9116 22.7917C32.6622 22.7917 32.4549 22.876 32.2896 23.0447C32.1243 23.2134 32.0417 23.4224 32.0417 23.6718C32.0417 23.9211 32.126 24.1285 32.2947 24.2937C32.4634 24.459 32.6724 24.5417 32.9218 24.5417ZM22.4201 26.4375C22.6317 26.4375 22.8056 26.3686 22.9417 26.2309C23.0778 26.0932 23.1458 25.919 23.1458 25.7083V24.3958H24.4583C24.669 24.3958 24.8432 24.3266 24.9809 24.1883C25.1186 24.0499 25.1875 23.8749 25.1875 23.6633C25.1875 23.4516 25.1186 23.2778 24.9809 23.1417C24.8432 23.0055 24.669 22.9375 24.4583 22.9375H23.1458V21.625C23.1458 21.4143 23.0767 21.2402 22.9383 21.1024C22.7999 20.9647 22.6249 20.8958 22.4133 20.8958C22.2017 20.8958 22.0278 20.9647 21.8917 21.1024C21.7556 21.2402 21.6875 21.4143 21.6875 21.625V22.9375H20.375C20.1644 22.9375 19.9902 23.0067 19.8524 23.145C19.7147 23.2834 19.6458 23.4584 19.6458 23.67C19.6458 23.8817 19.7147 24.0555 19.8524 24.1917C19.9902 24.3278 20.1644 24.3958 20.375 24.3958H21.6875V25.7083C21.6875 25.919 21.7567 26.0932 21.8951 26.2309C22.0334 26.3686 22.2084 26.4375 22.4201 26.4375Z" fill="url(#paint0_linear_16_10)"./>
<rect x="1" y="0.5" width="51" height="51" rx="24.5" stroke="url(#paint1_linear_16_10)"./>
<defs>
<linearGradient id="paint0_linear_16_10" x1="26.5146" y1="15.9958" x2="26.5146" y2="36.0042" gradientUnits="userSpaceOnUse">
<stop stop-color="#FEFEFF"./>
<stop offset="1" stop-color="#9EA5C0"./>
</linearGradient>
<linearGradient id="paint1_linear_16_10" x1="26.5" y1="0" x2="26.5" y2="52" gradientUnits="userSpaceOnUse">
<stop stop-color="#FEFEFF"./>
<stop offset="1" stop-color="#9EA5C0"./>
</linearGradient>
</defs>
</svg>
