<svg  preserveAspectRatio="xMidYMid meet" viewBox="0 0 52 52" fill="none" xmlns="http://www.w3.org/2000/svg">
<g clip-path="url(#clip0_5_184)">
<path d="M26 12C22.1966 12 21.7219 12.0175 20.2285 12.084C18.7375 12.154 17.7225 12.3885 16.83 12.735C15.9095 13.092 15.1278 13.5715 14.3497 14.3497C13.5715 15.1278 13.0908 15.9083 12.735 16.83C12.3885 17.7225 12.1528 18.7375 12.084 20.2285C12.014 21.7219 12 22.1966 12 26C12 29.8034 12.0175 30.2781 12.084 31.7715C12.154 33.2614 12.3885 34.2775 12.735 35.17C13.092 36.0894 13.5715 36.8721 14.3497 37.6504C15.1278 38.4274 15.9083 38.9091 16.83 39.265C17.7237 39.6104 18.7387 39.8471 20.2285 39.916C21.7219 39.986 22.1966 40 26 40C29.8034 40 30.2781 39.9825 31.7715 39.916C33.2614 39.846 34.2775 39.6104 35.17 39.265C36.0894 38.908 36.8721 38.4274 37.6504 37.6504C38.4274 36.8721 38.9091 36.0929 39.265 35.17C39.6104 34.2775 39.8471 33.2614 39.916 31.7715C39.986 30.2781 40 29.8034 40 26C40 22.1966 39.9825 21.7219 39.916 20.2285C39.846 18.7387 39.6104 17.7213 39.265 16.83C38.908 15.9095 38.4274 15.1278 37.6504 14.3497C36.8721 13.5715 36.0929 13.0908 35.17 12.735C34.2775 12.3885 33.2614 12.1528 31.7715 12.084C30.2781 12.014 29.8034 12 26 12ZM26 14.52C29.7369 14.52 30.1825 14.5387 31.6584 14.6028C33.0234 14.667 33.7641 14.8933 34.2565 15.087C34.9121 15.3402 35.3765 15.6435 35.8689 16.1323C36.3576 16.6223 36.661 17.0878 36.9141 17.7435C37.1055 18.2358 37.3341 18.9767 37.396 20.3417C37.4625 21.8186 37.4776 22.262 37.4776 26C37.4776 29.738 37.4601 30.1825 37.3914 31.6584C37.3201 33.0234 37.0926 33.7641 36.9001 34.2565C36.6389 34.9121 36.3414 35.3765 35.8514 35.8689C35.3625 36.3576 34.89 36.661 34.2414 36.9141C33.7514 37.1055 32.9989 37.3341 31.6339 37.396C30.1475 37.4625 29.71 37.4776 25.965 37.4776C22.2189 37.4776 21.7814 37.4601 20.2962 37.3914C18.93 37.3201 18.1775 37.0926 17.6875 36.9001C17.0237 36.6389 16.5675 36.3414 16.0787 35.8514C15.5875 35.3625 15.2737 34.89 15.0287 34.2414C14.8362 33.7514 14.6098 32.9989 14.5387 31.6339C14.4862 30.1639 14.4675 29.71 14.4675 25.9825C14.4675 22.2539 14.4862 21.7989 14.5387 20.3113C14.6098 18.9463 14.8362 18.195 15.0287 17.705C15.2737 17.04 15.5875 16.585 16.0787 16.0938C16.5675 15.605 17.0237 15.29 17.6875 15.0462C18.1775 14.8525 18.9137 14.625 20.2787 14.555C21.7661 14.5025 22.2036 14.485 25.9475 14.485L26 14.52ZM26 18.811C22.0275 18.811 18.811 22.031 18.811 26C18.811 29.9725 22.031 33.189 26 33.189C29.9725 33.189 33.189 29.969 33.189 26C33.189 22.0275 29.969 18.811 26 18.811ZM26 30.6666C23.4216 30.6666 21.3334 28.5784 21.3334 26C21.3334 23.4216 23.4216 21.3334 26 21.3334C28.5784 21.3334 30.6666 23.4216 30.6666 26C30.6666 28.5784 28.5784 30.6666 26 30.6666ZM35.1536 18.5275C35.1536 19.455 34.4 20.2075 33.4736 20.2075C32.5461 20.2075 31.7936 19.4538 31.7936 18.5275C31.7936 17.6012 32.5474 16.8487 33.4736 16.8487C34.3989 16.8475 35.1536 17.6012 35.1536 18.5275Z" fill="url(#paint0_linear_5_184)"/>
</g>
<rect x="0.5" y="0.5" width="51" height="51" rx="24.5" stroke="url(#paint1_linear_5_184)"/>
<defs>
<linearGradient id="paint0_linear_5_184" x1="26" y1="12" x2="26" y2="40" gradientUnits="userSpaceOnUse">
<stop stop-color="#FEFEFF"/>
<stop offset="1" stop-color="#9EA5C0"/>
</linearGradient>
<linearGradient id="paint1_linear_5_184" x1="26" y1="0" x2="26" y2="52" gradientUnits="userSpaceOnUse">
<stop stop-color="#FEFEFF"/>
<stop offset="1" stop-color="#9EA5C0"/>
</linearGradient>
<clipPath id="clip0_5_184">
<rect width="28" height="28" fill="white" transform="translate(12 12)"/>
</clipPath>
</defs>
</svg>
