<svg viewBox="0 0 52 52" fill="none" xmlns="http://www.w3.org/2000/svg" preserveAspectRatio="xMidYMid meet">
<path d="M27.5331 38.3375C27.0749 38.3375 26.734 38.185 26.5104 37.8801C26.2868 37.5751 26.2625 37.2133 26.4375 36.7946L31.0167 24.7167C31.1333 24.3861 31.3521 24.1042 31.6729 23.8708C31.9938 23.6375 32.3389 23.5208 32.7083 23.5208C33.0389 23.5208 33.3736 23.6375 33.7124 23.8708C34.0512 24.1042 34.2901 24.3861 34.4292 24.7167L39.0958 36.6458C39.2708 37.1319 39.2465 37.5354 39.0229 37.8563C38.7993 38.1771 38.425 38.3375 37.9 38.3375C37.6667 38.3375 37.4382 38.2549 37.2146 38.0896C36.991 37.9243 36.8403 37.725 36.7625 37.4917L35.7839 34.4292H29.85L28.6833 37.55C28.6056 37.7639 28.4566 37.9486 28.2366 38.1042C28.0165 38.2597 27.782 38.3375 27.5331 38.3375ZM30.5208 32.2708H34.8958L32.7344 26.2917H32.6792L30.5208 32.2708ZM20.1083 21.7125C20.4194 22.257 20.7588 22.7821 21.1263 23.2881C21.4938 23.794 21.8933 24.3188 22.325 24.8625C23.2638 23.8844 24.0445 22.8775 24.6672 21.8418C25.2899 20.8061 25.8217 19.7228 26.2625 18.5917H13.6531C13.3094 18.5917 13.0208 18.4741 12.7875 18.2389C12.5542 18.0037 12.4375 17.7168 12.4375 17.3785C12.4375 17.04 12.5562 16.7445 12.7937 16.4917C13.0312 16.2389 13.3208 16.1125 13.6625 16.1125H21.0753V14.8875C21.0753 14.5458 21.1945 14.2562 21.4331 14.0187C21.6716 13.7812 21.9625 13.6625 22.3058 13.6625C22.6492 13.6625 22.9424 13.7812 23.1854 14.0187C23.4285 14.2562 23.55 14.5458 23.55 14.8875V16.1125H30.9388C31.2824 16.1125 31.5708 16.2369 31.8042 16.4858C32.0375 16.7346 32.1542 17.0312 32.1542 17.3754C32.1542 17.7196 32.0354 18.0083 31.798 18.2417C31.5605 18.475 31.2709 18.5917 30.9292 18.5917H28.7062C28.2437 20.0111 27.6333 21.4063 26.875 22.7771C26.1167 24.1479 25.1931 25.4458 24.1042 26.6708L27.1375 29.7333L26.2521 32.2157L22.3048 28.45L16.9875 33.7875C16.6712 34.0986 16.3393 34.2444 15.992 34.225C15.6445 34.2056 15.4222 34.0403 15.325 33.7292C15.0722 33.4958 14.9458 33.2236 14.9458 32.9125C14.9458 32.6014 15.0722 32.3194 15.325 32.0667L20.75 26.6532C20.2056 26.0233 19.7 25.3826 19.2333 24.7313C18.7667 24.0799 18.3389 23.4139 17.95 22.7333C17.6972 22.2861 17.6729 21.8972 17.8771 21.5667C18.0813 21.2361 18.4513 21.0708 18.9872 21.0708C19.2171 21.0708 19.4323 21.1292 19.6327 21.2458C19.8331 21.3625 19.9917 21.5181 20.1083 21.7125Z" fill="url(#paint0_linear_5_204)"/>
<rect x="0.5" y="0.5" width="51" height="51" rx="24.5" stroke="url(#paint1_linear_5_204)"/>
<defs>
<linearGradient id="paint0_linear_5_204" x1="25.8243" y1="13.6625" x2="25.8243" y2="38.3375" gradientUnits="userSpaceOnUse">
<stop stop-color="#FEFEFF"/>
<stop offset="1" stop-color="#9EA5C0"/>
</linearGradient>
<linearGradient id="paint1_linear_5_204" x1="26" y1="0" x2="26" y2="52" gradientUnits="userSpaceOnUse">
<stop stop-color="#FEFEFF"/>
<stop offset="1" stop-color="#9EA5C0"/>
</linearGradient>
</defs>
</svg>
